<svg width="158" height="38" viewBox="0 0 158 38" fill="none" xmlns="http://www.w3.org/2000/svg">
<path d="M1.16051 28.9745L0 29.5704V25.3728L5.12626 24.8411V33.8882L5.67541 33.5943L6.26784 33.2736V37.4712L1.16321 38.0003V28.9745H1.16051Z" fill="#2B2B2B"/>
<path d="M10.2767 29.2896L7.999 29.5274L7.32001 24.555V22.0647L10.9584 21.688V24.1782L10.2794 29.2923L10.2767 29.2896Z" fill="#2B2B2B"/>
<path d="M13.1391 36.7335V30.9542L12.0002 31.5714V27.3738L17.1048 26.8447V28.146C17.608 27.12 18.7252 26.5936 20.0399 26.4573C21.2221 26.3344 22.4285 26.6631 22.8884 27.5475C23.5891 26.3291 25.2094 25.9203 26.2618 25.8134C27.7956 25.6531 29.3077 26.2756 29.3077 27.7265V31.3416L30.4683 30.7458V34.9433L25.3636 35.4724V30.4305C25.3636 29.8453 24.8821 29.4205 24.2897 29.4819C23.6973 29.5434 23.2157 30.0698 23.2157 30.6549V31.9748L24.3546 31.379V35.5766L19.25 36.1056V31.0637C19.25 30.4786 18.7685 30.0537 18.176 30.1152C17.5836 30.1766 17.1021 30.703 17.1021 31.2882V32.6081L18.2626 32.0122V36.2098L13.1363 36.7415L13.1391 36.7335Z" fill="#2B2B2B"/>
<path d="M95.9354 28.3861L83.5648 29.6713C83.1644 29.7141 82.7884 29.4682 82.6694 29.0888L80.6513 19.6329C80.4025 18.8447 79.2717 18.8527 79.0337 19.6436L77.2293 29.8102C77.1319 30.1336 76.8479 30.3687 76.507 30.4034L64.3284 31.6672C63.6494 31.7367 63.1706 31.026 63.498 30.4355L71.1698 16.5468C71.3186 16.277 71.305 15.951 71.1373 15.6918L63.8036 4.49649C63.4601 3.97279 63.7982 3.27542 64.4258 3.21129L75.9958 2.01161C76.3772 1.97153 76.737 2.19062 76.8749 2.54331L78.8091 13.3619C79.0905 14.0914 80.1401 14.0726 80.3997 13.3379L83.1617 1.75243C83.2699 1.44516 83.5459 1.22873 83.8732 1.19399L95.3133 0.00499234C95.9977 -0.0671495 96.4765 0.656939 96.1383 1.24743L88.8885 13.891C88.737 14.1555 88.7424 14.4814 88.902 14.7406L96.5766 27.117C96.9012 27.6406 96.563 28.322 95.9436 28.3861H95.9354Z" fill="#2B2B2B"/>
<path d="M45.7008 5.36242L59.5593 3.92493C59.5593 3.92493 59.5674 3.92493 59.5674 3.93294V22.2436C59.5674 22.2436 59.5728 22.2516 59.5782 22.2489C61.0742 21.4794 62.7216 22.3959 62.7216 23.9964V29.7891C62.7216 31.0315 61.7017 32.1484 60.4411 32.2767L52.1093 33.1424C50.3076 33.3294 48.8469 32.0389 48.8469 30.2594V28.2795C48.8469 28.2795 48.836 28.2714 48.8333 28.2795C47.0993 31.7957 43.0605 34.3207 39.2625 34.7134C35.57 35.0955 32.2372 33.4416 32.2372 29.3269V19.5182C32.2372 19.5182 32.2318 19.5102 32.2264 19.5129L29.0938 21.1802C29.0938 21.1802 29.083 21.1802 29.083 21.1748V7.09917C29.083 7.09917 29.0857 7.09115 29.0911 7.09115L43.0091 5.64564C43.0091 5.64564 43.0173 5.64564 43.0173 5.65366V21.9577C43.0173 23.5208 44.2427 24.7285 45.8225 24.6216C47.4808 24.5121 48.8523 23.0505 48.8523 21.4287V17.7949C48.8523 17.7949 48.8469 17.7868 48.8414 17.7895L45.7089 19.4568C45.7089 19.4568 45.6981 19.4568 45.6981 19.4514V5.37578C45.6981 5.37578 45.7008 5.36777 45.7062 5.36777L45.7008 5.36242Z" fill="#2B2B2B"/>
<path d="M114.014 22.7779C114.014 20.6965 112.405 19.2884 110.257 19.5101C108.122 19.7319 106.502 21.474 106.502 23.5581C106.502 25.6422 108.125 27.0449 110.3 26.8178C111.964 26.6442 113.338 25.5994 113.89 24.1994L112.559 24.3383C112.156 25.0784 111.296 25.6315 110.314 25.7357C108.969 25.8746 107.984 25.1292 107.776 23.9161L113.987 23.2722C114.001 23.1359 114.014 22.9142 114.014 22.7779ZM107.79 22.8607C108.025 21.645 108.996 20.7232 110.257 20.5923C111.52 20.4613 112.518 21.1801 112.74 22.3477L107.79 22.8607Z" fill="#2B2B2B"/>
<path d="M123.766 18.2303V25.2147L124.959 25.0918V18.1074L123.766 18.2303Z" fill="#2B2B2B"/>
<path d="M132.409 17.3405V18.6551C131.825 17.8135 130.843 17.3406 129.65 17.4635C127.627 17.6745 126.114 19.3766 126.114 21.4179C126.114 23.4592 127.627 24.8486 129.65 24.6376C130.843 24.5147 131.825 23.8493 132.409 22.8875V23.5581C132.409 25.0384 131.454 26.1098 129.996 26.2594C128.984 26.3636 128.181 26.0083 127.794 25.3376L126.561 25.4659C127.045 26.7992 128.292 27.5179 129.999 27.3415C132.163 27.1171 133.605 25.5701 133.605 23.4486V17.2177L132.412 17.3405H132.409ZM129.929 23.5394C128.519 23.7077 127.348 22.6817 127.348 21.2897C127.348 19.8976 128.408 18.6952 129.842 18.5242C131.249 18.3585 132.409 19.3739 132.409 20.7633C132.409 22.1527 131.349 23.3711 129.929 23.5394Z" fill="#2B2B2B"/>
<path d="M142.472 22.1793C142.083 22.2194 141.764 21.9415 141.764 21.5541V19.0745C141.764 17.3618 140.614 16.3599 138.894 16.5389C137.784 16.6538 136.884 17.2122 136.343 18.0913V16.9691L135.15 17.092V24.0764L136.343 23.9534V20.0364C136.343 18.7806 137.2 17.8561 138.499 17.7172C139.646 17.5943 140.571 18.4359 140.571 19.5688V21.9255C140.571 22.9515 141.169 23.4511 142.234 23.3416L142.594 23.3042V22.1686L142.47 22.182L142.472 22.1793Z" fill="#2B2B2B"/>
<path d="M150.766 18.9626C150.766 16.8811 149.157 15.473 147.009 15.6948C144.875 15.9166 143.254 17.6587 143.254 19.7428C143.254 21.8269 144.877 23.2296 147.052 23.0025C148.716 22.8288 150.09 21.7841 150.642 20.384L149.311 20.523C148.911 21.2631 148.05 21.8162 147.066 21.9204C145.721 22.0593 144.737 21.3139 144.528 20.1008L150.737 19.4569C150.75 19.3206 150.764 19.0988 150.764 18.9626H150.766ZM144.542 19.0454C144.777 17.8297 145.748 16.9079 147.009 16.7769C148.272 16.646 149.27 17.3648 149.492 18.5324L144.542 19.0454Z" fill="#2B2B2B"/>
<path d="M157.724 20.5976C156.864 20.6857 156.355 20.1487 156.355 19.2055C156.355 18.2623 156.837 17.0038 157.7 15.6706V14.8369L151.681 15.4622V22.361L152.857 22.2381L152.844 16.555L155.993 16.229C155.438 17.2443 155.116 18.5936 155.116 19.4567C155.116 20.8354 156.02 21.9095 157.627 21.7412L158 21.7011V20.5655L157.721 20.5949L157.724 20.5976Z" fill="#2B2B2B"/>
<path d="M104.492 21.5649C103.837 20.9102 102.882 20.5549 101.825 20.6644L98.2486 21.0358V28.071L101.887 27.6942C102.244 27.6568 102.607 27.574 102.945 27.427C103.556 27.1652 104.092 26.7537 104.506 26.2434C105.055 25.5727 105.387 24.7364 105.396 23.86V23.8226C105.396 22.9195 105.055 22.1313 104.487 21.5649H104.492ZM104.167 23.9883C104.143 25.2628 103.096 26.3903 101.803 26.5266L99.4442 26.7724V24.6135C99.4388 24.5547 99.4361 24.496 99.4361 24.4345C99.4361 24.373 99.4361 24.3143 99.4442 24.2555V22.0939L101.803 21.8481C103.115 21.7118 104.173 22.6523 104.173 23.9429C104.173 23.9562 104.173 23.9776 104.17 23.991L104.167 23.9883Z" fill="#2B2B2B"/>
<path d="M119.387 18.6871L118.012 18.8287L116.481 22.174L115.553 24.202C115.553 24.202 115.551 24.2073 115.548 24.2127C115.326 24.6883 114.856 25.049 114.312 25.1077V26.2246C114.331 26.2246 114.352 26.2219 114.371 26.2193C114.498 26.2059 114.623 26.1845 114.745 26.1525C115.397 25.9895 115.967 25.586 116.354 25.0543C116.422 24.9635 116.479 24.8726 116.533 24.7764C117.187 25.5326 118.28 25.9494 119.508 25.8212C121.283 25.6368 122.392 24.3997 122.392 22.7431C122.392 20.333 119.979 20.5014 119.384 18.6871H119.387ZM119.303 24.707C118.318 24.8085 117.404 24.4104 116.96 23.7183L118.678 19.9376C119.468 21.3056 121.161 21.4205 121.161 22.858C121.161 23.8707 120.398 24.5947 119.305 24.707H119.303Z" fill="#2B2B2B"/>
</svg>
