<svg width="199" height="49" viewBox="0 0 199 49" fill="none" xmlns="http://www.w3.org/2000/svg">
<path d="M1.46165 36.9508L0 37.7107V32.3575L6.4565 31.6794V43.2172L7.14814 42.8423L7.8943 42.4334V47.7866L1.46506 48.4613V36.9508H1.46165Z" fill="#377AFF"/>
<path d="M12.9435 37.3527L10.0747 37.656L9.21954 31.3147V28.1389L13.8021 27.6584V30.8342L12.9469 37.3561L12.9435 37.3527Z" fill="#377AFF"/>
<path d="M16.5485 46.8459V39.4755L15.1141 40.2626V34.9095L21.5434 34.2348V35.8942C22.1771 34.5858 23.5842 33.9145 25.2401 33.7407C26.729 33.584 28.2486 34.0031 28.8278 35.131C29.7103 33.5772 31.7511 33.0558 33.0765 32.9195C35.0083 32.7151 36.9129 33.509 36.9129 35.3593V39.9696L38.3746 39.2097V44.5629L31.9453 45.2376V38.8077C31.9453 38.0614 31.3389 37.5196 30.5927 37.598C29.8465 37.6764 29.2401 38.3476 29.2401 39.0939V40.7772L30.6745 40.0173V45.3704L24.2452 46.0451V39.6152C24.2452 38.869 23.6388 38.3272 22.8926 38.4056C22.1464 38.4839 21.54 39.1552 21.54 39.9014V41.5847L23.0016 40.8249V46.178L16.5451 46.8561L16.5485 46.8459Z" fill="#377AFF"/>
<path d="M120.83 36.2006L105.249 37.8396C104.745 37.8941 104.271 37.5806 104.122 37.0968L101.58 25.0377C101.266 24.0325 99.8422 24.0427 99.5424 25.0513L97.2699 38.0168C97.1472 38.4291 96.7895 38.729 96.3602 38.7733L81.0213 40.385C80.1661 40.4736 79.563 39.5672 79.9753 38.8141L89.6379 21.1021C89.8253 20.7579 89.8083 20.3422 89.597 20.0117L80.3603 5.73434C79.9276 5.06647 80.3535 4.17712 81.1439 4.09534L95.7162 2.56539C96.1966 2.51427 96.6498 2.79368 96.8235 3.24347L99.2596 17.0404C99.6139 17.9706 100.936 17.9467 101.263 17.0097L104.742 2.23486C104.878 1.843 105.225 1.56699 105.638 1.52269L120.046 0.00636669C120.908 -0.0856352 121.512 0.837789 121.086 1.59084L111.955 17.715C111.764 18.0524 111.771 18.4681 111.972 18.7986L121.638 34.5821C122.046 35.2499 121.621 36.1188 120.84 36.2006H120.83Z" fill="#377AFF"/>
<path d="M57.5598 6.8386L75.0145 5.00537C75.0145 5.00537 75.0248 5.00537 75.0248 5.01559V28.3671C75.0248 28.3671 75.0316 28.3773 75.0384 28.3739C76.9225 27.3925 78.9975 28.5613 78.9975 30.6024V37.9898C78.9975 39.5742 77.713 40.9986 76.1253 41.1621L65.6313 42.2662C63.3622 42.5047 61.5223 40.8589 61.5223 38.5895V36.0645C61.5223 36.0645 61.5087 36.0543 61.5053 36.0645C59.3213 40.5488 54.2345 43.7689 49.4509 44.2698C44.8002 44.757 40.6026 42.6478 40.6026 37.4003V24.8914C40.6026 24.8914 40.5958 24.8812 40.589 24.8846L36.6435 27.0109C36.6435 27.0109 36.6299 27.0109 36.6299 27.0041V9.05346C36.6299 9.05346 36.6333 9.04324 36.6401 9.04324L54.1698 7.19979C54.1698 7.19979 54.18 7.19979 54.18 7.21001V28.0025C54.18 29.9958 55.7234 31.536 57.7132 31.3997C59.8017 31.26 61.5291 29.3961 61.5291 27.3278V22.6936C61.5291 22.6936 61.5223 22.6834 61.5155 22.6868L57.5701 24.8131C57.5701 24.8131 57.5564 24.8131 57.5564 24.8062V6.85564C57.5564 6.85564 57.5598 6.84542 57.5667 6.84542L57.5598 6.8386Z" fill="#377AFF"/>
<path d="M143.6 29.0484C143.6 26.394 141.573 24.5982 138.868 24.8811C136.179 25.1639 134.139 27.3856 134.139 30.0434C134.139 32.7012 136.183 34.4902 138.922 34.2005C141.018 33.979 142.748 32.6467 143.443 30.8612L141.767 31.0384C141.259 31.9823 140.176 32.6876 138.939 32.8205C137.246 32.9977 136.006 32.047 135.743 30.5L143.566 29.6788C143.583 29.505 143.6 29.2222 143.6 29.0484ZM135.76 29.1541C136.057 27.6037 137.28 26.4281 138.868 26.2611C140.459 26.0941 141.716 27.0108 141.995 28.4998L135.76 29.1541Z" fill="#377AFF"/>
<path d="M155.883 23.249V32.1562L157.385 31.9994V23.0923L155.883 23.249Z" fill="#377AFF"/>
<path d="M166.769 22.1143V23.7907C166.033 22.7174 164.796 22.1143 163.293 22.271C160.745 22.5402 158.84 24.7108 158.84 27.3141C158.84 29.9174 160.745 31.6893 163.293 31.4201C164.796 31.2633 166.033 30.4149 166.769 29.1882V30.0435C166.769 31.9312 165.566 33.2976 163.729 33.4884C162.455 33.6213 161.443 33.1681 160.956 32.3128L159.402 32.4764C160.012 34.1767 161.583 35.0933 163.733 34.8684C166.459 34.5822 168.275 32.6093 168.275 29.9038V21.9575L166.772 22.1143H166.769ZM163.644 30.0196C161.869 30.2343 160.394 28.9258 160.394 27.1505C160.394 25.3752 161.729 23.8418 163.535 23.6238C165.307 23.4125 166.769 24.7073 166.769 26.4792C166.769 28.2511 165.433 29.8049 163.644 30.0196Z" fill="#377AFF"/>
<path d="M179.443 28.2851C178.952 28.3362 178.55 27.9818 178.55 27.4877V24.3256C178.55 22.1414 177.102 20.8636 174.936 21.0919C173.539 21.2384 172.404 21.9506 171.723 23.0716V21.6405L170.22 21.7972V30.7044L171.723 30.5476V25.5523C171.723 23.9508 172.803 22.7718 174.438 22.5946C175.883 22.4379 177.048 23.5112 177.048 24.956V27.9614C177.048 29.2699 177.801 29.9071 179.143 29.7673L179.596 29.7196V28.2715L179.44 28.2885L179.443 28.2851Z" fill="#377AFF"/>
<path d="M189.889 24.1829C189.889 21.5285 187.862 19.7328 185.157 20.0156C182.469 20.2984 180.428 22.5201 180.428 25.1779C180.428 27.8358 182.472 29.6247 185.211 29.335C187.307 29.1135 189.038 27.7812 189.733 25.9957L188.056 26.1729C187.552 27.1168 186.469 27.8221 185.228 27.955C183.535 28.1322 182.295 27.1815 182.033 25.6345L189.852 24.8133C189.869 24.6395 189.886 24.3567 189.886 24.1829H189.889ZM182.05 24.2886C182.346 22.7382 183.569 21.5626 185.157 21.3956C186.748 21.2286 188.005 22.1453 188.285 23.6343L182.05 24.2886Z" fill="#377AFF"/>
<path d="M198.652 26.2679C197.569 26.3804 196.928 25.6955 196.928 24.4926C196.928 23.2898 197.535 21.6849 198.622 19.9845V18.9214L191.041 19.7187V28.5169L192.523 28.3601L192.506 21.1124L196.472 20.6967C195.773 21.9915 195.368 23.7123 195.368 24.8129C195.368 26.5712 196.506 27.941 198.53 27.7263L199 27.6752V26.227L198.649 26.2645L198.652 26.2679Z" fill="#377AFF"/>
<path d="M131.607 27.5015C130.783 26.6667 129.58 26.2135 128.248 26.3532L123.743 26.8268V35.7987L128.326 35.3182C128.776 35.2705 129.232 35.1649 129.658 34.9775C130.428 34.6436 131.103 34.1188 131.624 33.468C132.316 32.6127 132.735 31.5462 132.745 30.4285V30.3808C132.745 29.2291 132.316 28.2239 131.6 27.5015H131.607ZM131.198 30.5921C131.168 32.2174 129.849 33.6554 128.22 33.8292L125.249 34.1427V31.3894C125.243 31.3145 125.239 31.2395 125.239 31.1611C125.239 31.0828 125.239 31.0078 125.249 30.9328V28.1762L128.22 27.8627C129.873 27.6889 131.205 28.8883 131.205 30.5342C131.205 30.5512 131.205 30.5785 131.202 30.5955L131.198 30.5921Z" fill="#377AFF"/>
<path d="M150.367 23.8315L148.636 24.0121L146.707 28.2783L145.539 30.8646C145.539 30.8646 145.535 30.8714 145.532 30.8782C145.253 31.4847 144.66 31.9447 143.975 32.0197V33.444C143.999 33.444 144.026 33.4406 144.05 33.4372C144.21 33.4202 144.367 33.3929 144.52 33.352C145.341 33.1442 146.06 32.6296 146.547 31.9515C146.633 31.8357 146.704 31.7198 146.772 31.5972C147.597 32.5615 148.973 33.0931 150.52 32.9295C152.755 32.6944 154.152 31.1167 154.152 29.0041C154.152 25.9305 151.113 26.1452 150.363 23.8315H150.367ZM150.261 31.5086C149.021 31.6381 147.869 31.1303 147.311 30.2478L149.474 25.4262C150.469 27.1709 152.602 27.3174 152.602 29.1506C152.602 30.442 151.641 31.3655 150.265 31.5086H150.261Z" fill="#377AFF"/>
</svg>
